<svg width="48" height="48" viewBox="0 0 48 48" fill="none" xmlns="http://www.w3.org/2000/svg">
<mask id="path-1-inside-1_3046_22196" fill="white">
<path d="M0 24C0 10.7452 10.7452 0 24 0V0C37.2548 0 48 10.7452 48 24V24C48 37.2548 37.2548 48 24 48V48C10.7452 48 0 37.2548 0 24V24Z"/>
</mask>
<path d="M0 24C0 10.7452 10.7452 0 24 0V0C37.2548 0 48 10.7452 48 24V24C48 37.2548 37.2548 48 24 48V48C10.7452 48 0 37.2548 0 24V24Z" fill="white"/>
<path d="M24 48V46.5C11.5736 46.5 1.5 36.4264 1.5 24H0H-1.5C-1.5 38.0833 9.91674 49.5 24 49.5V48ZM48 24H46.5C46.5 36.4264 36.4264 46.5 24 46.5V48V49.5C38.0833 49.5 49.5 38.0833 49.5 24H48ZM24 0V1.5C36.4264 1.5 46.5 11.5736 46.5 24H48H49.5C49.5 9.91674 38.0833 -1.5 24 -1.5V0ZM24 0V-1.5C9.91674 -1.5 -1.5 9.91674 -1.5 24H0H1.5C1.5 11.5736 11.5736 1.5 24 1.5V0Z" fill="#0E0E0E" fill-opacity="0.18" mask="url(#path-1-inside-1_3046_22196)"/>
<path fill-rule="evenodd" clip-rule="evenodd" d="M32.8768 24.5208C32.9309 24.4435 32.98 24.3634 33.024 24.281C33.641 23.3374 34 22.2079 34 21C34 17.6863 31.3137 15 28 15C26.463 15 25.0614 15.5776 24 16.5278C22.9386 15.5776 21.537 15 20 15C16.6863 15 14 17.6863 14 21C14 22.2079 14.359 23.3374 14.976 24.281C15.02 24.3634 15.0691 24.4435 15.1232 24.5208L15.7961 25.482C16.0276 25.8127 16.2919 26.1193 16.585 26.3969L24 33.4217L31.415 26.3969C31.7081 26.1193 31.9724 25.8127 32.2039 25.482L32.8768 24.5208ZM17.9605 24.945L24 30.6667L30.0395 24.945C30.2349 24.7599 30.4111 24.5556 30.5654 24.3351L31.2383 23.3739C31.2576 23.3463 31.2721 23.3171 31.282 23.2872C31.7346 22.639 32 21.8505 32 21C32 18.7909 30.2091 17 28 17C26.9351 17 25.9674 17.4161 25.2506 18.0947C24.9688 18.3615 24.7257 18.6688 24.5309 19.0074C24.5198 19.0266 24.509 19.0458 24.4982 19.0652C24.2411 19.5296 24.0737 20.0505 24.0193 20.6047C24.0172 20.6259 24.0153 20.6473 24.0135 20.6686L24.0134 20.6708L24 20.6667L23.9866 20.6708L23.9865 20.6686C23.9847 20.6473 23.9828 20.6259 23.9807 20.6047C23.9263 20.0505 23.7589 19.5296 23.5018 19.0652C23.4911 19.0459 23.4802 19.0266 23.4692 19.0075C23.2743 18.6689 23.0312 18.3615 22.7494 18.0947C22.0326 17.4161 21.0649 17 20 17C17.7909 17 16 18.7909 16 21C16 21.8505 16.2654 22.639 16.718 23.2872C16.7279 23.3171 16.7424 23.3463 16.7617 23.3739L17.4346 24.3351C17.5889 24.5556 17.7651 24.7599 17.9605 24.945Z" fill="#222222"/>
</svg>
